<svg width="40" height="40" viewBox="0 0 40 40" fill="none" xmlns="http://www.w3.org/2000/svg">
<path d="M8.48485 0H31.5152C36.2012 0 40 3.7988 40 8.48485V31.5152C40 36.2012 36.2012 40 31.5152 40H8.48485C3.7988 40 0 36.2012 0 31.5152V8.48485C0 3.7988 3.7988 0 8.48485 0Z" fill="#00C156"/>
<path d="M27.5 20C27.5 24.1421 24.1421 27.5 20 27.5C15.8579 27.5 12.5 24.1421 12.5 20C12.5 15.8579 15.8579 12.5 20 12.5C24.1421 12.5 27.5 15.8579 27.5 20Z" fill="#00C156" stroke="white" stroke-width="5"/>
<path d="M33 12C34.6569 12 36 10.6569 36 9C36 7.34315 34.6569 6 33 6C31.3431 6 30 7.34315 30 9C30 10.6569 31.3431 12 33 12Z" fill="white"/>
</svg>
