<svg width="58" height="32" viewBox="0 0 58 32" fill="none" xmlns="http://www.w3.org/2000/svg">
<path fill-rule="evenodd" clip-rule="evenodd" d="M57.6937 28.8987C57.6233 28.7518 57.5579 28.6313 57.4968 28.5331C56.4905 26.7814 54.5663 24.6306 51.7285 22.0809L51.6692 22.0214L51.6381 21.9931L51.6075 21.9636H51.5784C50.2899 20.7755 49.4735 19.9771 49.1316 19.5694C48.507 18.7908 48.3662 18.0014 48.7081 17.2035C48.9504 16.5996 49.8553 15.3259 51.4264 13.378C52.2516 12.3471 52.9067 11.5192 53.3881 10.8965C56.8722 6.41819 58.3817 3.55677 57.9184 2.31086L57.7391 2.0201C57.6177 1.84538 57.3068 1.6841 56.8037 1.53895C56.3005 1.392 55.656 1.36736 54.8707 1.46547L46.1724 1.52327C46.0329 1.47622 45.8304 1.47936 45.5696 1.53895C45.3074 1.59674 45.1753 1.62631 45.1753 1.62631L45.0252 1.70023L44.9057 1.78759C44.8042 1.84538 44.6939 1.94663 44.5725 2.09358C44.453 2.23918 44.352 2.41032 44.2723 2.60475C43.3239 4.96037 42.249 7.14978 41.0397 9.17432C40.2943 10.3817 39.6099 11.4282 38.9859 12.314C38.3613 13.1992 37.8382 13.8524 37.4166 14.2704C36.9931 14.6888 36.6114 15.0248 36.269 15.2766C35.9252 15.5306 35.6648 15.6373 35.4836 15.5987C35.3025 15.5584 35.1306 15.5199 34.9698 15.4814C34.6872 15.3066 34.4611 15.0683 34.2911 14.7659C34.1192 14.4648 34.0033 14.0849 33.9436 13.6266C33.8838 13.1696 33.8477 12.7759 33.8365 12.4452C33.8277 12.1146 33.8328 11.6455 33.8528 11.0434C33.8727 10.4395 33.8838 10.03 33.8838 9.81677C33.8838 9.07621 33.8982 8.27293 33.9273 7.40694C33.9579 6.54049 33.9834 5.85459 34.0033 5.34879C34.0233 4.84299 34.0339 4.30763 34.0339 3.74224C34.0339 3.17865 33.9978 2.73602 33.9273 2.4139C33.8583 2.09358 33.7518 1.78221 33.6104 1.47936C33.4691 1.1783 33.263 0.943993 32.9915 0.779574C32.7199 0.613364 32.3836 0.482098 31.9814 0.383984C30.9139 0.151021 29.5546 0.025131 27.9042 0.00407471C24.1597 -0.0344539 21.7541 0.200302 20.6862 0.706101C20.2627 0.919352 19.881 1.2119 19.539 1.58106C19.1772 2.0098 19.1262 2.24411 19.3871 2.28264C20.5959 2.45781 21.4502 2.87625 21.9552 3.5375L22.1359 3.88919C22.2772 4.14142 22.4185 4.58942 22.558 5.23142C22.6989 5.87386 22.7897 6.5844 22.829 7.36303C22.9305 8.78411 22.9305 10.0004 22.829 11.0138C22.7299 12.025 22.634 12.8144 22.5432 13.378C22.4528 13.9434 22.3171 14.3999 22.1359 14.7516C21.9552 15.1019 21.8338 15.3152 21.7722 15.394C21.7124 15.4711 21.6619 15.5199 21.6221 15.5392C21.3599 15.6373 21.0884 15.6861 20.8057 15.6861C20.5254 15.6861 20.183 15.5499 19.7795 15.2766C19.3778 15.0038 18.9599 14.6293 18.5271 14.1512C18.0949 13.6754 17.6061 13.0088 17.0612 12.1513C16.5182 11.2952 15.9557 10.284 15.371 9.11474L14.8878 8.26801C14.5852 7.72368 14.1729 6.93071 13.6498 5.88775C13.1267 4.84658 12.6634 3.84036 12.2617 2.86549C12.1005 2.45781 11.8581 2.14644 11.5357 1.93095L11.3856 1.84359C11.2841 1.76653 11.1233 1.6841 10.9023 1.59495C10.6799 1.50759 10.4501 1.44442 10.2073 1.40589L1.93296 1.46368C1.08787 1.46368 0.513819 1.64916 0.211736 2.01831L0.0903469 2.19348C0.030579 2.2916 0 2.44706 0 2.66075C0 2.87625 0.059768 3.13833 0.181157 3.45014C1.38995 6.19418 2.70207 8.8419 4.1226 11.3915C5.54174 13.9434 6.77417 15.9961 7.82034 17.5534C8.86836 19.1111 9.93399 20.581 11.0219 21.9618C12.1097 23.3443 12.8297 24.23 13.1809 24.6203C13.534 25.0105 13.811 25.3008 14.0116 25.4952L14.7664 26.1968C15.2496 26.6641 15.959 27.2241 16.8967 27.875C17.8322 28.5278 18.8695 29.1702 20.0061 29.8037C21.1444 30.4354 22.4672 30.9515 23.9785 31.3507C25.488 31.7498 26.9577 31.9107 28.3875 31.8318H31.8605C32.5643 31.774 33.0985 31.559 33.4603 31.1898L33.5799 31.0447C33.6609 30.9273 33.7369 30.7467 33.806 30.5035C33.8764 30.2607 33.9125 29.9927 33.9125 29.7006C33.8926 28.8638 33.9579 28.1098 34.108 27.4378C34.2582 26.7675 34.43 26.2617 34.6223 25.9204C34.8141 25.579 35.0291 25.2923 35.2719 25.0593C35.5124 24.825 35.6847 24.6848 35.7857 24.6359C35.8853 24.5867 35.965 24.5535 36.0266 24.5324C36.5099 24.377 37.0779 24.5293 37.733 24.9858C38.3868 25.4446 39.0002 26.0077 39.5757 26.6797C40.1492 27.3517 40.8391 28.1062 41.6425 28.9426C42.4496 29.779 43.1539 30.4022 43.7562 30.8117L44.3608 31.1616C44.7643 31.3964 45.2874 31.6096 45.9319 31.804C46.5759 31.9998 47.1388 32.0491 47.6221 31.951L55.3539 31.8336C56.1175 31.8336 56.7128 31.7113 57.1345 31.468C57.5579 31.2248 57.8081 30.9569 57.8892 30.6665C57.9707 30.374 57.9745 30.0434 57.9054 29.6724C57.8331 29.3033 57.7627 29.0443 57.6937 28.8987Z" fill="#00C156"/>
</svg>
