<svg width="59" height="52" viewBox="0 0 59 52" fill="none" xmlns="http://www.w3.org/2000/svg">
<path d="M4.58337 7H50.4166C52.9375 7 55 8.96872 55 11.375V16.625C55 19.0313 52.9375 21 50.4166 21H4.58337C2.06249 20.9998 0 19.0311 0 16.6249V11.3749C0 8.96872 2.06249 7 4.58337 7Z" fill="#D67A39"/>
<path d="M14.7729 11.624L43.8301 4.06681C44.8049 3.79367 45.826 4.3855 46.1045 5.34157L50.9319 22.8235C51.2104 23.7795 50.6069 24.781 49.6322 25.0542L11.8022 34.9332C10.8274 35.2063 9.80629 34.6145 9.52779 33.6584L6 20.8202L14.7729 11.624Z" fill="#03873E"/>
<path d="M1.04582 17.9734C9.17864 13.2542 31.1101 0.253607 31.1101 0.253607C31.9782 -0.255276 33.1205 0.0223075 33.6231 0.90134L42.7612 16.8166C43.2637 17.6957 42.9439 18.806 42.0758 19.315L8.63037 38.7464C7.76226 39.2553 6.62002 38.9777 6.11735 38.0987C6.11735 38.0987 3.55873 32.8245 1 28.3829C1.00012 17.9734 1.04582 21.3969 1.04582 17.9734Z" fill="#00C156"/>
<path fill-rule="evenodd" clip-rule="evenodd" d="M0 12V15.5556V47.5555C0 50 2.06854 52 4.59681 52H52.4032C54.9313 52 56.9999 50 57 47.5556V20.0001C57 17.5556 54.9315 15.5556 52.4032 15.5556H3.67745C1.65478 15.5556 0 13.9555 0 12Z" fill="#FC9600"/>
<path d="M57.2353 40H50.1765C46.7794 40 44 37.075 44 33.5C44 29.925 46.7794 27 50.1765 27H57.2353C58.2059 27 59 27.8357 59 28.8572V38.1429C59 39.1643 58.2059 40 57.2353 40Z" fill="#A86A3F"/>
<path d="M50 30C52.1999 30 54 31.7999 54 34C54 36.2001 52.2001 38 50 38C47.8001 38 46 36.2001 46 34C46 31.7999 47.8001 30 50 30Z" fill="#EFC75E"/>
<path d="M50.7945 37.0411C48.685 37.0411 46.9589 35.3151 46.9589 33.2055C46.9589 32.3905 47.1986 31.6233 47.6302 31C46.6233 31.6712 46 32.8219 46 34.1644C46 36.2739 47.726 38 49.8356 38C51.1302 38 52.2808 37.3288 53 36.3698C52.3767 36.8014 51.6095 37.0411 50.7945 37.0411Z" fill="#D7B354"/>
<path d="M52.4032 50H4.59681C2.06854 50 0 47.75 0 45V47C0 49.75 2.06854 52 4.59681 52H52.4032C54.9315 52 57 49.75 57 47V45C56.9999 47.75 54.9313 50 52.4032 50Z" fill="#9F6207"/>
<path d="M52.4032 14.6364H3.67745C1.65478 14.6364 0 13 0 11V12.8182C0 14.8181 1.65478 16.4545 3.67745 16.4545H52.4032C54.9315 16.4545 57 18.5 57 21V19.1818C56.9999 16.6818 54.9313 14.6364 52.4032 14.6364Z" fill="#F7C070"/>
</svg>
