<svg width="89" height="50" viewBox="0 0 89 50" fill="none" xmlns="http://www.w3.org/2000/svg">
<path d="M22 7.8C22 6.2544 20.768 5 19.25 5H2.75C1.232 5 0 6.2544 0 7.8C0 9.3456 1.232 10.6 2.75 10.6H19.25C20.768 10.6 22 9.3456 22 7.8Z" fill="#FC9600"/>
<path d="M19.25 16.2H8.25C6.732 16.2 5.5 17.4544 5.5 19C5.5 20.5456 6.732 21.8 8.25 21.8H19.25C20.768 21.8 22 20.5456 22 19C22 17.4544 20.768 16.2 19.25 16.2Z" fill="#FC9600"/>
<path d="M19.25 27.4H13.75C12.232 27.4 11 28.6544 11 30.2C11 31.7456 12.232 33 13.75 33H19.25C20.768 33 22 31.7456 22 30.2C22 28.6544 20.768 27.4 19.25 27.4Z" fill="#FC9600"/>
<path d="M88.6095 26.0865L80.3595 12.3365C79.8645 11.506 78.968 11 78 11H58.75C57.232 11 56 12.232 56 13.75V41.25C56 42.768 57.232 44 58.75 44H86.25C87.768 44 89 42.768 89 41.25V27.5C89 26.9995 88.868 26.51 88.6095 26.0865Z" fill="#00C156"/>
<path d="M67 17H77.0065L84 28H67V17Z" fill="#FAFAFA"/>
<path d="M58.1875 0H18.8125C17.26 0 16 1.232 16 2.75V41.25C16 42.768 17.26 44 18.8125 44H61V2.75C61 1.232 59.74 0 58.1875 0Z" fill="#FC9600"/>
<path d="M75.5 47C78.5376 47 81 44.5376 81 41.5C81 38.4624 78.5376 36 75.5 36C72.4624 36 70 38.4624 70 41.5C70 44.5376 72.4624 47 75.5 47Z" fill="#FAFAFA"/>
<path fill-rule="evenodd" clip-rule="evenodd" d="M67 41.5C67 46.1863 70.8137 50 75.5 50C80.1863 50 84 46.1863 84 41.5C84 36.8137 80.1863 33 75.5 33C70.8137 33 67 36.8137 67 41.5ZM72.6667 41.5C72.6667 39.9417 73.9417 38.6667 75.5 38.6667C77.0583 38.6667 78.3333 39.9417 78.3333 41.5C78.3333 43.0583 77.0583 44.3333 75.5 44.3333C73.9417 44.3333 72.6667 43.0583 72.6667 41.5Z" fill="#455A64"/>
<path d="M61 44H18.8125C17.26 44 16 42.768 16 41.25V33H61V44Z" fill="#00C156"/>
<path d="M36.5 47C39.5376 47 42 44.5376 42 41.5C42 38.4624 39.5376 36 36.5 36C33.4624 36 31 38.4624 31 41.5C31 44.5376 33.4624 47 36.5 47Z" fill="#FAFAFA"/>
<path fill-rule="evenodd" clip-rule="evenodd" d="M28 41.5C28 46.1863 31.8137 50 36.5 50C41.1863 50 45 46.1863 45 41.5C45 36.8137 41.1863 33 36.5 33C31.8137 33 28 36.8137 28 41.5ZM33.6667 41.5C33.6667 39.9417 34.936 38.6667 36.5 38.6667C38.064 38.6667 39.3333 39.9417 39.3333 41.5C39.3333 43.0583 38.064 44.3333 36.5 44.3333C34.936 44.3333 33.6667 43.0583 33.6667 41.5Z" fill="#455A64"/>
</svg>
