<svg width="59" height="59" viewBox="0 0 59 59" fill="none" xmlns="http://www.w3.org/2000/svg">
<rect x="1.5" y="5" width="56" height="14" fill="#E1C7A0"/>
<path d="M50.5 11L56.5 5H58.5V19H56.5L50.5 11Z" fill="#FCD9A6"/>
<path d="M50.5 11V19H56.5L50.5 11Z" fill="#CCB297"/>
<path d="M8.5 11L2.5 5H0.5V19H2.5L8.5 11Z" fill="#FCD9A6"/>
<path d="M8.5 11V19H2.5L8.5 11Z" fill="#CCB297"/>
<path d="M54.758 59H4.242C2.175 59 0.5 57.325 0.5 55.258V19H58.5V55.258C58.5 57.325 56.825 59 54.758 59Z" fill="#FC9600"/>
<path d="M17.5 30C19.1569 30 20.5 28.6569 20.5 27C20.5 25.3431 19.1569 24 17.5 24C15.8431 24 14.5 25.3431 14.5 27C14.5 28.6569 15.8431 30 17.5 30Z" fill="#72543A"/>
<path d="M41.5 30C43.1569 30 44.5 28.6569 44.5 27C44.5 25.3431 43.1569 24 41.5 24C39.8431 24 38.5 25.3431 38.5 27C38.5 28.6569 39.8431 30 41.5 30Z" fill="#72543A"/>
<path d="M29.5 46C22.332 46 16.5 40.168 16.5 33V27C16.5 26.447 16.947 26 17.5 26C18.053 26 18.5 26.447 18.5 27V33C18.5 39.065 23.435 44 29.5 44C35.565 44 40.5 39.065 40.5 33V27C40.5 26.447 40.947 26 41.5 26C42.053 26 42.5 26.447 42.5 27V33C42.5 40.168 36.668 46 29.5 46Z" fill="#FFF0E0"/>
<path d="M29.5 16C33.9183 16 37.5 12.4183 37.5 8C37.5 3.58172 33.9183 0 29.5 0C25.0817 0 21.5 3.58172 21.5 8C21.5 12.4183 25.0817 16 29.5 16Z" fill="#00C156"/>
<path d="M29.5 13.923C28.947 13.923 28.5 13.476 28.5 12.923V3.07703C28.5 2.52403 28.947 2.07703 29.5 2.07703C30.053 2.07703 30.5 2.52403 30.5 3.07703V12.923C30.5 13.476 30.053 13.923 29.5 13.923Z" fill="white"/>
<path d="M29.5002 13.923C29.2442 13.923 28.9882 13.825 28.7932 13.63C28.4022 13.239 28.4022 12.607 28.7932 12.216L33.1013 7.908C33.4922 7.517 34.1243 7.517 34.5153 7.908C34.9062 8.299 34.9062 8.931 34.5153 9.322L30.2072 13.63C30.0122 13.825 29.7563 13.923 29.5002 13.923Z" fill="white"/>
<path d="M29.4997 13.923C29.2437 13.923 28.9877 13.825 28.7927 13.63L24.4847 9.322C24.0937 8.931 24.0937 8.299 24.4847 7.908C24.8757 7.517 25.5077 7.517 25.8987 7.908L30.2067 12.216C30.5977 12.607 30.5977 13.239 30.2067 13.63C30.0117 13.825 29.7557 13.923 29.4997 13.923Z" fill="white"/>
</svg>
