<svg width="41" height="40" viewBox="0 0 41 40" fill="none" xmlns="http://www.w3.org/2000/svg">
<path fill-rule="evenodd" clip-rule="evenodd" d="M41 0H0V40H41V0ZM4 20.5C4 24.9565 7.49967 28 12.129 28C16.0052 28 17.9765 25.6957 18.8404 23.7609L14.9863 22.0217C14.6098 23.1522 13.458 24.1304 12.129 24.1304C9.98046 24.1304 8.54072 22.5217 8.54072 20.5C8.54072 18.4783 9.98046 16.8696 12.129 16.8696C13.458 16.8696 14.6098 17.8478 14.9863 18.9783L18.8404 17.2174C17.9544 15.2174 16.0052 13 12.129 13C7.49967 13 4 16.0217 4 20.5ZM27.4124 27.7391H31.3993V20.2391C31.3993 18.413 30.314 16.9783 27.8332 16.9783C25.9505 16.9783 24.7765 17.7391 24.1564 18.4348V13.2391H20.1694V27.7391H24.1564V21.2609C24.4886 20.8913 24.9537 20.4348 25.8619 20.4348C26.8143 20.4348 27.4124 20.8043 27.4124 21.8913V27.7391ZM35.63 28C34.3453 28 33.2599 26.9348 33.2599 25.6739C33.2599 24.413 34.3453 23.3478 35.63 23.3478C36.9147 23.3478 38 24.413 38 25.6739C38 26.9348 36.9147 28 35.63 28Z" fill="#00C156"/>
</svg>
