<svg width="180" height="128" viewBox="0 0 180 128" fill="none" xmlns="http://www.w3.org/2000/svg">
<path d="M79.7778 5.7134e-08L82.4036 0L82.4036 39.89C82.4036 40.4571 82.4699 41.0223 82.6011 41.5743C83.5777 45.6833 86.0692 47.6196 90.3904 47.6196C90.8796 47.6196 91.3452 47.5943 91.7872 47.5441C95.5426 47.117 98.3772 43.9721 98.3772 40.2328V2.8567e-08L101.003 2.8567e-08V40.2328C101.003 45.2918 97.1679 49.5467 92.0871 50.1245C91.5434 50.1863 90.9779 50.2171 90.3904 50.2171C84.8549 50.2171 81.3015 47.4555 80.045 42.1688C79.8675 41.4219 79.7778 40.6573 79.7778 39.89L79.7778 5.7134e-08Z" fill="#00C156"/>
<rect x="89.4058" y="5.62769" width="1.75053" height="33.7667" fill="#FC9600"/>
<rect x="93.7822" y="5.62769" width="1.75053" height="33.7667" fill="#FC9600"/>
<rect x="85.0298" y="5.62769" width="1.75053" height="33.7667" fill="#FC9600"/>
<path d="M145.463 13.6252L147.491 15.6531L119.416 43.7277C119.017 44.1268 118.67 44.5757 118.383 45.0656C116.246 48.7117 116.807 51.9986 120.144 55.3358C120.522 55.7136 120.899 56.0553 121.276 56.3613C124.477 58.9609 128.879 58.9366 131.511 56.305L159.827 27.9891L161.855 30.017L133.539 58.3328C129.978 61.8933 124.022 61.9261 119.691 58.409C119.228 58.0327 118.77 57.6175 118.316 57.1638C114.041 52.8889 113.24 48.2011 115.991 43.5099C116.379 42.8472 116.848 42.2398 117.388 41.6998L145.463 13.6252Z" fill="#00C156"/>
<rect x="148.938" y="25.0215" width="1.91187" height="33.6087" transform="rotate(45 148.938 25.0215)" fill="#FC9600"/>
<rect x="152.317" y="28.4014" width="1.91187" height="33.6087" transform="rotate(45 152.317 28.4014)" fill="#FC9600"/>
<rect x="145.558" y="21.6418" width="1.91187" height="33.6087" transform="rotate(45 145.558 21.6418)" fill="#FFB306"/>
<path d="M17.438 30.2725L19.4658 28.2446L47.5404 56.3192C47.9395 56.7183 48.3885 57.0649 48.8783 57.3521C52.5244 59.4898 55.8113 58.9284 59.1485 55.5913C59.5263 55.2135 59.8681 54.8361 60.174 54.4594C62.7736 51.2586 62.7494 46.8561 60.1177 44.2244L31.8019 15.9086L33.8297 13.8807L62.1455 42.1966C65.7061 45.7571 65.7389 51.7134 62.2218 56.0439C61.8454 56.5073 61.4303 56.9657 60.9766 57.4193C56.7016 61.6943 52.0139 62.4949 47.3227 59.7445C46.6599 59.3559 46.0525 58.887 45.5126 58.347L17.438 30.2725Z" fill="#00C156"/>
<rect x="28.834" y="26.7979" width="1.91187" height="33.6087" transform="rotate(-45 28.834 26.7979)" fill="#FC9600"/>
<rect x="32.2139" y="23.418" width="1.91187" height="33.6087" transform="rotate(-45 32.2139 23.418)" fill="#FC9600"/>
<rect x="25.4546" y="30.1775" width="1.91187" height="33.6087" transform="rotate(-45 25.4546 30.1775)" fill="#FC9600"/>
<path fill-rule="evenodd" clip-rule="evenodd" d="M3.58946 100H0V74H3.58946V84.6997H5.236C6.00439 84.6997 6.78375 84.6358 7.57409 84.508C8.36444 84.3802 9.12184 84.1072 9.84632 83.689L16.0703 74H20.3842L12.3161 86.2332L16.7289 93.2386C17.124 93.8892 17.5082 94.4062 17.8814 94.7895C18.2547 95.1729 18.6059 95.4692 18.9352 95.6783C19.2645 95.8874 19.5829 96.021 19.8902 96.0791C20.1976 96.1372 20.494 96.1662 20.7794 96.1662C20.9111 96.1662 21.0428 96.1604 21.1745 96.1488C21.3063 96.1372 21.438 96.1314 21.5697 96.1314V100H20.2854C19.7146 100 19.1712 99.9651 18.6553 99.8954C18.1394 99.8257 17.629 99.6573 17.124 99.3901C16.6191 99.1229 16.1032 98.7163 15.5763 98.1702C15.0494 97.6242 14.5006 96.8633 13.9297 95.8874L9.22064 87.9062C8.64983 88.1618 8.06257 88.336 7.45884 88.429C6.8551 88.5219 6.25686 88.5684 5.66411 88.5684H3.58946V100ZM31.1855 100H27.8266V81.9464H31.1855V89.1609C31.7563 88.8588 32.4259 88.7078 33.1943 88.7078C33.8968 88.7078 34.7146 88.7949 35.6476 88.9692C36.5807 89.1434 37.4753 89.2306 38.3315 89.2306C38.7047 89.2306 39.067 89.2015 39.4182 89.1434C39.7695 89.0853 40.1207 88.9634 40.472 88.7775V81.9464H43.831V100H40.472V92.437C40.1427 92.6229 39.8134 92.7449 39.4841 92.8029C39.1548 92.861 38.8145 92.8901 38.4632 92.8901C37.5412 92.8901 36.663 92.8088 35.8288 92.6461C34.9945 92.4835 34.1603 92.4021 33.326 92.4021C32.9528 92.4021 32.5906 92.4312 32.2393 92.4893C31.888 92.5474 31.5368 92.6577 31.1855 92.8204V100ZM68.3974 81.9464H65.0384L55.0933 94.9115V81.9464H51.7344V100H55.0933L65.0384 86.9651V100H68.3974V81.9464ZM87.3326 81.9464H90.9221V89.2654C91.5148 89.2654 92.0307 89.2073 92.4698 89.0912C92.9089 88.975 93.2602 88.7891 93.5236 88.5335L98.3315 81.9464H102.678L96.4215 90.4156L99.2865 94.5281C99.7914 95.2717 100.329 95.7596 100.9 95.992C101.471 96.2243 101.976 96.3405 102.415 96.3405H103.271V100H102.119C101.658 100 101.224 99.9884 100.818 99.9651C100.412 99.9419 100 99.8432 99.5829 99.6689C99.1657 99.4946 98.7486 99.2158 98.3315 98.8324C97.9144 98.4491 97.4753 97.9088 97.0143 97.2118L94.0176 92.6113C93.5785 92.7971 93.112 92.9191 92.618 92.9772C92.124 93.0353 91.5587 93.0643 90.9221 93.0643V100H87.3326V93.0643C86.6959 93.0643 86.1306 93.0353 85.6367 92.9772C85.1427 92.9191 84.6762 92.7971 84.2371 92.6113L81.2404 97.2118C80.7794 97.9088 80.3403 98.4491 79.9232 98.8324C79.506 99.2158 79.0889 99.4946 78.6718 99.6689C78.2547 99.8432 77.843 99.9419 77.4369 99.9651C77.0307 99.9884 76.5972 100 76.1361 100H74.9835V96.3405H75.8397C76.2788 96.3405 76.7783 96.2243 77.3381 95.992C77.8979 95.7596 78.4413 95.2717 78.9682 94.5281L81.8332 90.4156L75.5763 81.9464H79.9232L84.7311 88.5335C84.9945 88.7891 85.3458 88.975 85.7849 89.0912C86.2239 89.2073 86.7398 89.2654 87.3326 89.2654V81.9464ZM109.857 100H113.216V92.8204C113.568 92.6577 113.919 92.5474 114.27 92.4893C114.621 92.4312 114.984 92.4021 115.357 92.4021C116.191 92.4021 117.025 92.4835 117.859 92.6461C118.694 92.8088 119.572 92.8901 120.494 92.8901C120.845 92.8901 121.186 92.861 121.515 92.8029C121.844 92.7449 122.173 92.6229 122.503 92.437V100H125.862V81.9464H122.503V88.7775C122.151 88.9634 121.8 89.0853 121.449 89.1434C121.098 89.2015 120.735 89.2306 120.362 89.2306C119.506 89.2306 118.611 89.1434 117.678 88.9692C116.745 88.7949 115.928 88.7078 115.225 88.7078C114.457 88.7078 113.787 88.8588 113.216 89.1609V81.9464H109.857V100ZM137.157 96.3753H143.249C143.6 96.3753 143.935 96.3463 144.254 96.2882C144.572 96.2301 144.852 96.1256 145.093 95.9745C145.335 95.8235 145.532 95.6144 145.686 95.3472C145.84 95.08 145.917 94.7256 145.917 94.2842C145.917 93.8659 145.84 93.5232 145.686 93.256C145.532 92.9888 145.335 92.7797 145.093 92.6287C144.852 92.4777 144.566 92.3789 144.237 92.3324C143.908 92.286 143.578 92.2627 143.249 92.2627H142.492C141.504 92.2627 140.554 92.2046 139.643 92.0885C138.732 91.9723 137.903 91.6819 137.157 91.2172V96.3753ZM152.075 81.9464V100H155.434V81.9464H152.075ZM137.157 87.6273C137.53 87.8365 137.87 88.0107 138.178 88.1501C138.485 88.2895 138.825 88.3941 139.199 88.4638C139.572 88.5335 140.016 88.5858 140.532 88.6206C141.048 88.6555 141.701 88.6729 142.492 88.6729H143.249C144.105 88.6729 144.901 88.7949 145.637 89.0389C146.372 89.2828 147.009 89.6372 147.547 90.1019C148.085 90.5666 148.513 91.1591 148.831 91.8794C149.149 92.5996 149.308 93.4245 149.308 94.3539C149.308 95.3065 149.149 96.1372 148.831 96.8458C148.513 97.5545 148.085 98.1412 147.547 98.6059C147.009 99.0706 146.372 99.4191 145.637 99.6515C144.901 99.8838 144.105 100 143.249 100H133.765V81.9464H137.157V87.6273ZM166.696 81.9464H163.337V100H166.696L176.641 86.9651V100H180V81.9464H176.641L166.696 94.9115V81.9464ZM171.998 77.6595C172.525 77.6595 172.958 77.5782 173.299 77.4155C173.639 77.2529 173.897 77.038 174.072 76.7708C174.248 76.5036 174.369 76.2189 174.435 75.9169C174.501 75.6148 174.533 75.3244 174.533 75.0456H178.321C178.255 75.58 178.112 76.1434 177.892 76.7359C177.673 77.3284 177.322 77.8744 176.839 78.374C176.356 78.8736 175.724 79.286 174.945 79.6113C174.166 79.9366 173.183 80.0992 171.998 80.0992C170.812 80.0992 169.83 79.9366 169.05 79.6113C168.271 79.286 167.64 78.8736 167.157 78.374C166.674 77.8744 166.323 77.3284 166.103 76.7359C165.884 76.1434 165.741 75.58 165.675 75.0456H169.462C169.462 75.3244 169.495 75.6148 169.561 75.9169C169.627 76.2189 169.748 76.5036 169.923 76.7708C170.099 77.038 170.357 77.2529 170.697 77.4155C171.037 77.5782 171.471 77.6595 171.998 77.6595ZM70.2549 114H67.7157L68.4935 115.717L62.8203 128H65.2908L65.3595 127.842C65.451 127.701 65.6988 127.52 66.1029 127.3C66.5071 127.08 67.0027 126.869 67.5899 126.666C68.177 126.464 68.829 126.292 69.5458 126.151C70.2625 126.01 70.9869 125.94 71.719 125.94H73.1373L74.0752 128H76.6601L70.2549 114ZM59.7092 116.509V128H57.1242V119.996L52.9379 126.442L48.7516 119.996V128H46.1667V116.509L45 114.317H47.8824L52.9379 122.057L57.9935 114.317H60.8758L59.7092 116.509ZM72.0163 123.457L69.7059 118.385L66.8922 124.645C67.2734 124.416 67.8606 124.161 68.6536 123.879C69.4466 123.597 70.4608 123.457 71.6961 123.457H72.0163ZM82.6536 121.132C83.1721 120.78 83.7516 120.56 84.3922 120.472C85.0327 120.384 85.6961 120.34 86.3824 120.34H87.4346C87.9989 120.34 88.4526 120.234 88.7958 120.023C89.1389 119.811 89.3105 119.345 89.3105 118.623C89.3105 118.288 89.2571 118.019 89.1503 117.817C89.0436 117.614 88.9025 117.456 88.7271 117.342C88.5517 117.227 88.3535 117.148 88.1324 117.104C87.9112 117.06 87.6786 117.038 87.4346 117.038H82.6536V121.132ZM80.3203 114.317V128H82.6536V123.853C82.9129 123.694 83.1492 123.562 83.3627 123.457C83.5763 123.351 83.8165 123.272 84.0833 123.219C84.3502 123.166 84.6629 123.126 85.0212 123.1C85.3796 123.074 85.8333 123.06 86.3824 123.06H87.4346C88.7767 123.06 89.8252 122.669 90.5801 121.885C91.335 121.101 91.7124 120.023 91.7124 118.649C91.7124 117.997 91.6171 117.403 91.4265 116.866C91.2358 116.329 90.9728 115.871 90.6373 115.492C90.3017 115.114 89.8938 114.823 89.4134 114.621C88.933 114.418 88.4107 114.317 87.8464 114.317H80.3203ZM98.3235 128H95.8301V114.317H98.3235V119.864H99.1013C99.5131 119.864 99.86 119.825 100.142 119.745C100.424 119.666 100.68 119.521 100.908 119.309L104.248 114.317H107.268L102.922 120.736L104.912 123.853C105.263 124.416 105.636 124.791 106.033 124.975C106.429 125.16 106.78 125.253 107.085 125.253H107.908V128H106.879C106.574 128 106.277 127.987 105.987 127.96C105.697 127.934 105.407 127.85 105.118 127.709C104.828 127.569 104.538 127.353 104.248 127.062C103.959 126.772 103.654 126.362 103.333 125.834L101.252 122.4C100.947 122.541 100.63 122.633 100.302 122.677C99.9744 122.721 99.6503 122.743 99.3301 122.743H98.3235V128ZM122.252 125.253H114.817V123.087C115.076 122.928 115.313 122.796 115.526 122.691C115.74 122.585 115.976 122.506 116.235 122.453C116.495 122.4 116.803 122.36 117.162 122.334C117.52 122.308 117.974 122.294 118.523 122.294H120.261V119.574H118.523C117.837 119.574 117.177 119.618 116.544 119.706C115.911 119.794 115.336 120.014 114.817 120.366V117.038H121.817V114.317H112.484V128H122.252V125.253ZM131.539 117.038V128H129.183V117.038H124.882V114.317H136V117.038H131.539Z" fill="#333333"/>
</svg>
