<svg width="123" height="83" viewBox="0 0 123 83" fill="none" xmlns="http://www.w3.org/2000/svg">
<path d="M54.5413 3.6969e-08L56.3679 0L56.3679 25.8112C56.3679 26.1781 56.414 26.5438 56.5053 26.901C57.1846 29.5598 58.9179 30.8127 61.9239 30.8127C62.2642 30.8127 62.5881 30.7963 62.8956 30.7638C65.508 30.4875 67.4799 28.4525 67.4799 26.033V1.84845e-08L69.3066 1.84845e-08V26.033C69.3066 29.3065 66.6387 32.0596 63.1042 32.4335C62.726 32.4735 62.3326 32.4934 61.9239 32.4934C58.0731 32.4934 55.6012 30.7065 54.7271 27.2857C54.6036 26.8024 54.5413 26.3076 54.5413 25.8112L54.5413 3.6969e-08Z" fill="#00C156"/>
<rect x="61.239" y="3.64151" width="1.21776" height="21.849" fill="#FC9600"/>
<rect x="64.2832" y="3.64151" width="1.21776" height="21.849" fill="#FC9600"/>
<rect x="58.1946" y="3.64151" width="1.21776" height="21.849" fill="#FC9600"/>
<path d="M98.5491 8.56021L99.9241 9.93525L81.7582 28.1012C81.5 28.3594 81.2773 28.6515 81.0946 28.9716C79.7348 31.3542 80.1577 33.5408 82.4206 35.8036C82.6768 36.0598 82.9321 36.2921 83.1865 36.5007C85.3475 38.2727 88.2641 38.325 89.967 36.6221L108.289 18.3001L109.664 19.6751L91.342 37.9972C89.0381 40.301 85.0922 40.2304 82.1684 37.8329C81.8555 37.5763 81.5453 37.2941 81.2377 36.9865C78.3389 34.0877 77.7357 30.9693 79.4853 27.9038C79.7325 27.4707 80.0338 27.0755 80.3832 26.7261L98.5491 8.56021Z" fill="#00C156"/>
<rect x="101.028" y="16.1649" width="1.2964" height="21.7468" transform="rotate(45 101.028 16.1649)" fill="#FC9600"/>
<rect x="103.32" y="18.4566" width="1.2964" height="21.7468" transform="rotate(45 103.32 18.4566)" fill="#FC9600"/>
<rect x="98.7361" y="13.8732" width="1.2964" height="21.7468" transform="rotate(45 98.7361 13.8732)" fill="#FFB306"/>
<path d="M12.8564 19.8441L14.2315 18.4691L32.3974 36.635C32.6556 36.8933 32.9477 37.1159 33.2678 37.2986C35.6505 38.6585 37.837 38.2355 40.0999 35.9726C40.356 35.7165 40.5883 35.4611 40.7969 35.2068C42.569 33.0457 42.6212 30.1291 40.9183 28.4263L22.5963 10.1043L23.9714 8.72922L42.2934 27.0512C44.5973 29.3551 44.5266 33.3011 42.1291 36.2248C41.8725 36.5377 41.5904 36.8479 41.2827 37.1555C38.384 40.0543 35.2656 40.6575 32.2 38.9079C31.7669 38.6607 31.3717 38.3594 31.0223 38.01L12.8564 19.8441Z" fill="#00C156"/>
<rect x="20.4612" y="17.3652" width="1.2964" height="21.7468" transform="rotate(-45 20.4612 17.3652)" fill="#FC9600"/>
<rect x="22.7529" y="15.0735" width="1.2964" height="21.7468" transform="rotate(-45 22.7529 15.0735)" fill="#FC9600"/>
<rect x="18.1694" y="19.657" width="1.2964" height="21.7468" transform="rotate(-45 18.1694 19.657)" fill="#FC9600"/>
<path fill-rule="evenodd" clip-rule="evenodd" d="M2.4528 65H0V48H2.4528V54.996H3.57794C4.103 54.996 4.63556 54.9542 5.17563 54.8706C5.7157 54.7871 6.23326 54.6086 6.72832 54.3351L10.9813 48H13.9292L8.41603 55.9987L11.4314 60.5791C11.7014 61.0045 11.964 61.3425 12.219 61.5932C12.474 61.8438 12.714 62.0375 12.9391 62.1743C13.1641 62.311 13.3816 62.3983 13.5917 62.4363C13.8017 62.4743 14.0042 62.4933 14.1992 62.4933C14.2892 62.4933 14.3793 62.4895 14.4693 62.4819C14.5593 62.4743 14.6493 62.4705 14.7393 62.4705V65H13.8617C13.4716 65 13.1003 64.9772 12.7478 64.9316C12.3953 64.8861 12.0465 64.7759 11.7014 64.6012C11.3564 64.4265 11.0038 64.1606 10.6438 63.8036C10.2838 63.4466 9.90871 62.9491 9.51866 62.311L6.30077 57.0925C5.91072 57.2596 5.50942 57.3735 5.09687 57.4343C4.68432 57.4951 4.27552 57.5255 3.87047 57.5255H2.4528V65ZM21.3101 65H19.0148V53.1957H21.3101V57.9129C21.7001 57.7154 22.1577 57.6166 22.6828 57.6166C23.1628 57.6166 23.7216 57.6736 24.3592 57.7875C24.9968 57.9015 25.6081 57.9584 26.1932 57.9584C26.4482 57.9584 26.6958 57.9395 26.9358 57.9015C27.1758 57.8635 27.4158 57.7837 27.6559 57.6622V53.1957H29.9512V65H27.6559V60.055C27.4308 60.1765 27.2058 60.2563 26.9808 60.2942C26.7558 60.3322 26.5232 60.3512 26.2832 60.3512C25.6531 60.3512 25.0531 60.298 24.483 60.1917C23.9129 60.0853 23.3428 60.0322 22.7728 60.0322C22.5177 60.0322 22.2702 60.0512 22.0302 60.0891C21.7902 60.1271 21.5501 60.1993 21.3101 60.3056V65ZM46.7382 53.1957H44.4429L37.6471 61.6729V53.1957H35.3518V65H37.6471L44.4429 56.4772V65H46.7382V53.1957ZM59.6773 53.1957H62.1301V57.9812C62.5351 57.9812 62.8877 57.9433 63.1877 57.8673C63.4877 57.7913 63.7278 57.6698 63.9078 57.5027L67.1932 53.1957H70.1636L65.888 58.7332L67.8458 61.4223C68.1908 61.9084 68.5584 62.2274 68.9484 62.3794C69.3385 62.5313 69.6835 62.6072 69.9835 62.6072H70.5686V65H69.781C69.466 65 69.1697 64.9924 68.8922 64.9772C68.6146 64.962 68.3333 64.8975 68.0483 64.7835C67.7633 64.6696 67.4782 64.4873 67.1932 64.2366C66.9082 63.9859 66.6081 63.6327 66.2931 63.1769L64.2453 60.1689C63.9453 60.2904 63.6265 60.3702 63.289 60.4082C62.9514 60.4462 62.5651 60.4651 62.1301 60.4651V65H59.6773V60.4651C59.2422 60.4651 58.8559 60.4462 58.5184 60.4082C58.1808 60.3702 57.8621 60.2904 57.562 60.1689L55.5143 63.1769C55.1992 63.6327 54.8992 63.9859 54.6142 64.2366C54.3291 64.4873 54.0441 64.6696 53.7591 64.7835C53.474 64.8975 53.1927 64.962 52.9152 64.9772C52.6377 64.9924 52.3414 65 52.0263 65H51.2388V62.6072H51.8238C52.1239 62.6072 52.4651 62.5313 52.8477 62.3794C53.2302 62.2274 53.6015 61.9084 53.9616 61.4223L55.9193 58.7332L51.6438 53.1957H54.6142L57.8996 57.5027C58.0796 57.6698 58.3196 57.7913 58.6197 57.8673C58.9197 57.9433 59.2722 57.9812 59.6773 57.9812V53.1957ZM75.0692 65H77.3644V60.3056C77.6045 60.1993 77.8445 60.1271 78.0845 60.0891C78.3246 60.0512 78.5721 60.0322 78.8271 60.0322C79.3972 60.0322 79.9672 60.0853 80.5373 60.1917C81.1074 60.298 81.7075 60.3512 82.3375 60.3512C82.5776 60.3512 82.8101 60.3322 83.0351 60.2942C83.2602 60.2563 83.4852 60.1765 83.7102 60.055V65H86.0055V53.1957H83.7102V57.6622C83.4702 57.7837 83.2301 57.8635 82.9901 57.9015C82.7501 57.9395 82.5026 57.9584 82.2475 57.9584C81.6625 57.9584 81.0511 57.9015 80.4136 57.7875C79.776 57.6736 79.2172 57.6166 78.7371 57.6166C78.212 57.6166 77.7545 57.7154 77.3644 57.9129V53.1957H75.0692V65ZM93.7239 62.63H97.8869C98.127 62.63 98.3557 62.611 98.5733 62.5731C98.7908 62.5351 98.9821 62.4667 99.1471 62.368C99.3121 62.2692 99.4471 62.1325 99.5521 61.9578C99.6572 61.7831 99.7097 61.5514 99.7097 61.2627C99.7097 60.9893 99.6572 60.7652 99.5521 60.5905C99.4471 60.4158 99.3121 60.279 99.1471 60.1803C98.9821 60.0815 98.787 60.017 98.562 59.9866C98.337 59.9562 98.112 59.941 97.8869 59.941H97.3694C96.6943 59.941 96.0455 59.903 95.4229 59.8271C94.8003 59.7511 94.234 59.5612 93.7239 59.2574V62.63ZM103.918 53.1957V65H106.213V53.1957H103.918ZM93.7239 56.9102C93.979 57.0469 94.2115 57.1609 94.4215 57.252C94.6315 57.3432 94.8641 57.4115 95.1191 57.4571C95.3741 57.5027 95.6779 57.5369 96.0305 57.5597C96.383 57.5824 96.8293 57.5938 97.3694 57.5938H97.8869C98.472 57.5938 99.0158 57.6736 99.5184 57.8331C100.021 57.9926 100.456 58.2243 100.824 58.5282C101.191 58.832 101.484 59.2194 101.701 59.6903C101.919 60.1613 102.027 60.7006 102.027 61.3083C102.027 61.9312 101.919 62.4743 101.701 62.9377C101.484 63.401 101.191 63.7846 100.824 64.0885C100.456 64.3923 100.021 64.6202 99.5184 64.7721C99.0158 64.924 98.472 65 97.8869 65H91.4062V53.1957H93.7239V56.9102ZM113.909 53.1957H111.614V65H113.909L120.705 56.4772V65H123V53.1957H120.705L113.909 61.6729V53.1957ZM117.532 50.3928C117.892 50.3928 118.188 50.3396 118.421 50.2332C118.653 50.1269 118.829 49.9864 118.95 49.8117C119.07 49.637 119.152 49.4508 119.197 49.2534C119.242 49.0559 119.265 48.866 119.265 48.6836H121.852C121.807 49.0331 121.71 49.4015 121.56 49.7889C121.41 50.1763 121.17 50.5333 120.84 50.8599C120.51 51.1866 120.078 51.4562 119.546 51.6689C119.013 51.8816 118.342 51.9879 117.532 51.9879C116.722 51.9879 116.05 51.8816 115.518 51.6689C114.985 51.4562 114.554 51.1866 114.224 50.8599C113.894 50.5333 113.654 50.1763 113.504 49.7889C113.354 49.4015 113.256 49.0331 113.211 48.6836H115.799C115.799 48.866 115.822 49.0559 115.867 49.2534C115.912 49.4508 115.994 49.637 116.114 49.8117C116.234 49.9864 116.41 50.1269 116.643 50.2332C116.876 50.3396 117.172 50.3928 117.532 50.3928ZM48.2066 74H46.4766L47.0065 75.1038L43.1413 83H44.8245L44.8713 82.8981C44.9336 82.8075 45.1025 82.6915 45.3778 82.55C45.6532 82.4085 45.9909 82.2726 46.3909 82.1425C46.7909 82.0123 47.2351 81.9019 47.7235 81.8113C48.2118 81.7208 48.7054 81.6755 49.2041 81.6755H50.1704L50.8095 83H52.5706L48.2066 74ZM41.0216 75.6132V83H39.2604V77.8547L36.4082 81.9981L33.5561 77.8547V83H31.7949V75.6132L31 74.2038H32.9638L36.4082 79.1792L39.8527 74.2038H41.8165L41.0216 75.6132ZM49.4067 80.0792L47.8326 76.8189L45.9155 80.8434C46.1753 80.6962 46.5753 80.5321 47.1156 80.3509C47.6559 80.1698 48.3469 80.0792 49.1885 80.0792H49.4067ZM56.6541 78.5849C57.0074 78.3585 57.4022 78.217 57.8386 78.1604C58.275 78.1038 58.727 78.0755 59.1946 78.0755H59.9115C60.296 78.0755 60.6051 78.0075 60.8389 77.8717C61.0726 77.7358 61.1895 77.4359 61.1895 76.9717C61.1895 76.7566 61.1532 76.584 61.0804 76.4538C61.0077 76.3236 60.9116 76.2217 60.7921 76.1481C60.6726 76.0745 60.5375 76.0236 60.3869 75.9953C60.2362 75.967 60.0778 75.9528 59.9115 75.9528H56.6541V78.5849ZM55.0644 74.2038V83H56.6541V80.334C56.8307 80.2321 56.9918 80.1472 57.1373 80.0792C57.2827 80.0113 57.4464 79.9604 57.6282 79.9264C57.81 79.8925 58.023 79.867 58.2672 79.85C58.5114 79.833 58.8205 79.8245 59.1946 79.8245H59.9115C60.8259 79.8245 61.5402 79.5726 62.0546 79.0689C62.5689 78.5651 62.826 77.8717 62.826 76.9887C62.826 76.5698 62.7611 76.1877 62.6312 75.8425C62.5013 75.4972 62.3221 75.2028 62.0935 74.9594C61.8649 74.716 61.587 74.5292 61.2597 74.3991C60.9324 74.2689 60.5765 74.2038 60.1921 74.2038H55.0644ZM67.3303 83H65.6315V74.2038H67.3303V77.7698H67.8602C68.1408 77.7698 68.3772 77.7443 68.5694 77.6934C68.7616 77.6425 68.9356 77.5491 69.0915 77.4132L71.367 74.2038H73.4243L70.463 78.3302L71.819 80.334C72.058 80.6962 72.3126 80.9368 72.5827 81.0557C72.8529 81.1745 73.0918 81.234 73.2997 81.234H73.8607V83H73.1594C72.9516 83 72.749 82.9915 72.5515 82.9745C72.3541 82.9575 72.1567 82.9038 71.9593 82.8132C71.7619 82.7226 71.5644 82.584 71.367 82.3972C71.1696 82.2104 70.9618 81.9472 70.7436 81.6075L69.3253 79.4C69.1175 79.4906 68.9019 79.55 68.6785 79.5783C68.4551 79.6066 68.2343 79.6208 68.0161 79.6208H67.3303V83ZM83.633 81.234H78.5676V79.8415C78.7443 79.7396 78.9053 79.6547 79.0508 79.5868C79.1962 79.5189 79.3573 79.4679 79.5339 79.434C79.7106 79.4 79.921 79.3745 80.1652 79.3575C80.4093 79.3406 80.7184 79.3321 81.0925 79.3321H82.277V77.583H81.0925C80.6249 77.583 80.1756 77.6113 79.7443 77.6679C79.3131 77.7245 78.9209 77.866 78.5676 78.0925V75.9528H83.3369V74.2038H76.9779V83H83.633V81.234ZM89.9608 75.9528V83H88.3555V75.9528H85.4253V74.2038H93V75.9528H89.9608Z" fill="#333333"/>
</svg>
