<svg width="29" height="16" viewBox="0 0 29 16" fill="none" xmlns="http://www.w3.org/2000/svg">
<path fill-rule="evenodd" clip-rule="evenodd" d="M28.8468 14.4494C28.8116 14.3759 28.779 14.3156 28.7484 14.2666C28.2452 13.3907 27.2831 12.3153 25.8642 11.0405L25.8346 11.0107L25.8191 10.9966L25.8038 10.9818H25.7892C25.1449 10.3877 24.7368 9.98855 24.5658 9.78471C24.2535 9.39539 24.1831 9.0007 24.3541 8.60175C24.4752 8.29979 24.9276 7.66295 25.7132 6.68899C26.1258 6.17355 26.4533 5.7596 26.694 5.44823C28.4361 3.20909 29.1909 1.77838 28.9592 1.15543L28.8695 1.01005C28.8089 0.922691 28.6534 0.84205 28.4018 0.769473C28.1502 0.696 27.828 0.68368 27.4353 0.732736L23.0862 0.761633C23.0165 0.738112 22.9152 0.73968 22.7848 0.769473C22.6537 0.798369 22.5877 0.813154 22.5877 0.813154L22.5126 0.850114L22.4528 0.893795C22.4021 0.922691 22.347 0.973316 22.2863 1.04679C22.2265 1.11959 22.176 1.20516 22.1362 1.30238C21.6619 2.48019 21.1245 3.57489 20.5199 4.58716C20.1471 5.19085 19.805 5.71412 19.4929 6.15698C19.1806 6.59961 18.9191 6.9262 18.7083 7.1352C18.4966 7.34442 18.3057 7.51242 18.1345 7.63831C17.9626 7.76532 17.8324 7.81863 17.7418 7.79937C17.6512 7.77921 17.5653 7.75995 17.4849 7.74068C17.3436 7.65332 17.2305 7.53415 17.1455 7.38295C17.0596 7.23242 17.0017 7.04246 16.9718 6.81331C16.9419 6.58482 16.9238 6.38793 16.9183 6.22261C16.9139 6.0573 16.9164 5.82276 16.9264 5.5217C16.9363 5.21975 16.9419 5.01501 16.9419 4.90838C16.9419 4.53811 16.9491 4.13647 16.9637 3.70347C16.979 3.27025 16.9917 2.9273 17.0017 2.6744C17.0116 2.4215 17.017 2.15381 17.017 1.87112C17.017 1.58933 16.9989 1.36801 16.9637 1.20695C16.9292 1.04679 16.8759 0.891107 16.8052 0.73968C16.7346 0.58915 16.6315 0.471996 16.4957 0.389787C16.36 0.306682 16.1918 0.241049 15.9907 0.191992C15.457 0.0755104 14.7773 0.0125655 13.9521 0.00203735C12.0798 -0.0172269 10.8771 0.100151 10.3431 0.353051C10.1314 0.459676 9.94048 0.60595 9.76951 0.790529C9.58859 1.0049 9.56311 1.12205 9.69353 1.14132C10.2979 1.2289 10.7251 1.43812 10.9776 1.76875L11.068 1.94459C11.1386 2.07071 11.2093 2.29471 11.279 2.61571C11.3494 2.93693 11.3948 3.2922 11.4145 3.68152C11.4653 4.39206 11.4653 5.00022 11.4145 5.50692C11.3649 6.0125 11.317 6.40719 11.2716 6.68899C11.2264 6.97168 11.1585 7.19994 11.068 7.37578C10.9776 7.55095 10.9169 7.65758 10.8861 7.697C10.8562 7.73553 10.831 7.75995 10.8111 7.76958C10.6799 7.81863 10.5442 7.84305 10.4029 7.84305C10.2627 7.84305 10.0915 7.77495 9.88974 7.63831C9.6889 7.50189 9.47994 7.31463 9.26357 7.07562C9.04743 6.83772 8.80303 6.50441 8.5306 6.07566C8.2591 5.64759 7.97786 5.14202 7.68551 4.55737L7.44389 4.134C7.29262 3.86184 7.08644 3.46535 6.8249 2.94387C6.56336 2.42329 6.3317 1.92018 6.13085 1.43275C6.05023 1.2289 5.92907 1.07322 5.76784 0.965476L5.69278 0.921795C5.64205 0.883267 5.56166 0.84205 5.45116 0.797473C5.33997 0.753793 5.22506 0.722208 5.10367 0.702944L0.96648 0.73184C0.543935 0.73184 0.25691 0.824578 0.105868 1.00916L0.0451735 1.09674C0.0152895 1.1458 0 1.22353 0 1.33038C0 1.43812 0.029884 1.56916 0.0905786 1.72507C0.694976 3.09709 1.35103 4.42095 2.0613 5.69575C2.77087 6.97168 3.38708 7.99806 3.91017 8.7767C4.43418 9.55556 4.967 10.2905 5.51093 10.9809C6.05486 11.6722 6.41486 12.115 6.59046 12.3101C6.76698 12.5052 6.90552 12.6504 7.00582 12.7476L7.3832 13.0984C7.62482 13.332 7.97949 13.612 8.44836 13.9375C8.91608 14.2639 9.43477 14.5851 10.003 14.9018C10.5722 15.2177 11.2336 15.4757 11.9893 15.6753C12.744 15.8749 13.4788 15.9553 14.1937 15.9159H15.9302C16.2821 15.887 16.5492 15.7795 16.7302 15.5949L16.7899 15.5223C16.8305 15.4636 16.8685 15.3734 16.903 15.2517C16.9382 15.1303 16.9563 14.9964 16.9563 14.8503C16.9463 14.4319 16.979 14.0549 17.054 13.7189C17.1291 13.3838 17.215 13.1309 17.3112 12.9602C17.4071 12.7895 17.5146 12.6461 17.636 12.5296C17.7562 12.4125 17.8424 12.3424 17.8929 12.318C17.9427 12.2933 17.9825 12.2767 18.0133 12.2662C18.2549 12.1885 18.539 12.2647 18.8665 12.4929C19.1934 12.7223 19.5001 13.0039 19.7878 13.3399C20.0746 13.6759 20.4196 14.0531 20.8213 14.4713C21.2248 14.8895 21.5769 15.2011 21.8781 15.4059L22.1804 15.5808C22.3822 15.6982 22.6437 15.8048 22.966 15.902C23.288 15.9999 23.5694 16.0245 23.811 15.9755L27.677 15.9168C28.0587 15.9168 28.3564 15.8556 28.5672 15.734C28.779 15.6124 28.9041 15.4784 28.9446 15.3333C28.9854 15.187 28.9872 15.0217 28.9527 14.8362C28.9166 14.6516 28.8814 14.5222 28.8468 14.4494Z" fill="#00C156"/>
</svg>
