<svg width="47" height="35" viewBox="0 0 47 35" fill="none" xmlns="http://www.w3.org/2000/svg">
<path d="M45 7.90625L37.1818 23H21.4963L15.7433 11.7045L10.9491 2H2" stroke="#00C156" stroke-width="3" stroke-linecap="round"/>
<path d="M23 35C24.6569 35 26 33.6569 26 32C26 30.3431 24.6569 29 23 29C21.3431 29 20 30.3431 20 32C20 33.6569 21.3431 35 23 35Z" fill="#FC9600"/>
<path d="M35 35C36.6569 35 38 33.6569 38 32C38 30.3431 36.6569 29 35 29C33.3431 29 32 30.3431 32 32C32 33.6569 33.3431 35 35 35Z" fill="#FC9600"/>
</svg>
