<svg width="34" height="34" viewBox="0 0 34 34" fill="none" xmlns="http://www.w3.org/2000/svg">
<path fill-rule="evenodd" clip-rule="evenodd" d="M4.03038 31.3438H8.7324C9.46593 31.3438 10.0605 31.9384 10.0605 32.6719C10.0605 33.4054 9.46593 34 8.7324 34H4.03038C2.81322 34 1.67481 33.4586 0.907158 32.5146C0.135584 31.5659 -0.163642 30.3336 0.0861779 29.1339C0.883252 25.3052 2.99477 21.8209 6.03166 19.3229C7.68797 17.9605 9.58055 16.928 11.5974 16.2641C9.39594 14.6155 7.96873 11.9869 7.96873 9.03125C7.96873 4.05145 12.0201 0 17 0C21.9799 0 26.0312 4.05145 26.0312 9.03125C26.0312 11.9843 24.6065 14.6108 22.4084 16.2596C22.6308 16.3329 22.8522 16.4102 23.0721 16.4929C23.7588 16.7507 24.1064 17.5164 23.8486 18.2031C23.5907 18.8898 22.825 19.2376 22.1384 18.9796C20.6039 18.4034 18.9918 18.093 17.3414 18.0554C17.228 18.0596 17.1143 18.0625 17 18.0625C16.8866 18.0625 16.7739 18.0597 16.6615 18.0555C9.91224 18.2125 4.06584 23.0505 2.68665 29.6753C2.60052 30.0889 2.70312 30.5129 2.96794 30.8387C3.12134 31.0273 3.4634 31.3438 4.03038 31.3438ZM17 2.65625C13.4848 2.65625 10.625 5.51604 10.625 9.03125C10.625 12.442 13.3175 15.2356 16.6886 15.3985C16.7923 15.3967 16.8961 15.3952 17 15.3952C17.1036 15.3952 17.207 15.3968 17.3104 15.3986C20.6819 15.2361 23.375 12.4423 23.375 9.03125C23.375 5.51604 20.5152 2.65625 17 2.65625Z" fill="#00C156"/>
<path d="M32.9833 22.8841C32.4148 21.6124 31.1342 20.7884 29.7177 20.7852H25.5758C25.5728 20.7852 25.57 20.7852 25.567 20.7852C24.0728 20.7852 22.7693 21.6657 22.2447 23.0302C22.1749 23.2117 22.0896 23.4404 22.0006 23.707H13.3049C12.9459 23.707 12.6021 23.8524 12.352 24.11L10.0705 26.46C9.56804 26.9775 9.57057 27.8016 10.0762 28.316L12.4004 30.6809C12.6501 30.935 12.9914 31.0781 13.3476 31.0781H17.664C18.3976 31.0781 18.9922 30.4835 18.9922 29.7499C18.9922 29.0164 18.3976 28.4218 17.664 28.4218H13.9045L12.88 27.3794L13.8666 26.3633H22.9968C23.6087 26.3633 24.1414 25.9453 24.2869 25.351C24.3943 24.9122 24.5291 24.4904 24.7241 23.9833C24.8526 23.6489 25.1755 23.4414 25.5702 23.4414C25.571 23.4414 25.5719 23.4414 25.5727 23.4414H29.7146C30.0902 23.4423 30.4134 23.6441 30.5583 23.9681C30.9148 24.7658 31.3405 26.0007 31.3437 27.3539C31.3469 28.7172 30.9216 29.9804 30.5642 30.8C30.4201 31.1306 30.0941 31.3438 29.7301 31.3438C29.7294 31.3438 29.7286 31.3438 29.7279 31.3438H25.536C25.1686 31.3429 24.8244 31.1065 24.6796 30.7555C24.5243 30.3789 24.3897 29.949 24.2681 29.4409C24.0974 28.7275 23.3805 28.2877 22.6674 28.4583C21.954 28.6291 21.5141 29.3458 21.6849 30.0591C21.839 30.7032 22.0154 31.2623 22.2241 31.7683C22.7819 33.1206 24.0795 33.9965 25.533 33.9999H29.7249C29.7277 33.9999 29.7304 33.9999 29.7332 33.9999C31.1511 33.9999 32.4324 33.1612 32.9991 31.8616C33.4581 30.809 34.0043 29.1714 34 27.3476C33.9957 25.5288 33.4447 23.9164 32.9833 22.8841Z" fill="#FC9600"/>
<path d="M28.1211 28.6875C29.1307 28.6875 29.9492 27.869 29.9492 26.8594C29.9492 25.8497 29.1307 25.0312 28.1211 25.0312C27.1114 25.0312 26.293 25.8497 26.293 26.8594C26.293 27.869 27.1114 28.6875 28.1211 28.6875Z" fill="#FC9600"/>
</svg>
