<svg width="16" height="16" viewBox="0 0 16 16" fill="none" xmlns="http://www.w3.org/2000/svg">
<path d="M8.432 3.952C8.88 3.952 9.344 4.016 9.824 4.144C10.3147 4.26133 10.7733 4.43733 11.2 4.672V8.624C11.2 9.27467 11.2533 9.728 11.36 9.984C11.4773 10.24 11.6747 10.368 11.952 10.368C12.368 10.368 12.6933 10.112 12.928 9.6C13.1627 9.07733 13.28 8.20267 13.28 6.976C13.28 5.54667 12.8747 4.44267 12.064 3.664C11.2533 2.87467 10.0373 2.48 8.416 2.48C7.296 2.48 6.33067 2.72 5.52 3.2C4.72 3.66933 4.10667 4.33067 3.68 5.184C3.264 6.02667 3.056 7.008 3.056 8.128C3.056 9.856 3.51467 11.2107 4.432 12.192C5.36 13.184 6.69333 13.68 8.432 13.68C8.96533 13.68 9.51467 13.6267 10.08 13.52C10.6453 13.424 11.1467 13.296 11.584 13.136L12.176 14.88C11.6533 15.0827 11.056 15.2427 10.384 15.36C9.72267 15.488 9.06667 15.552 8.416 15.552C6.88 15.552 5.536 15.248 4.384 14.64C3.232 14.032 2.34133 13.168 1.712 12.048C1.08267 10.928 0.768 9.62133 0.768 8.128C0.768 6.69867 1.09333 5.41333 1.744 4.272C2.40533 3.13067 3.31733 2.24 4.48 1.6C5.64267 0.959999 6.96 0.639999 8.432 0.639999C9.89333 0.639999 11.1627 0.933333 12.24 1.52C13.3173 2.096 14.1387 2.864 14.704 3.824C15.2693 4.784 15.552 5.824 15.552 6.944C15.552 7.904 15.408 8.76267 15.12 9.52C14.832 10.2773 14.4213 10.8693 13.888 11.296C13.3653 11.7227 12.7573 11.936 12.064 11.936C11.4667 11.936 10.9813 11.776 10.608 11.456C10.2453 11.136 10.016 10.752 9.92 10.304C9.71733 10.784 9.424 11.168 9.04 11.456C8.656 11.7333 8.18667 11.872 7.632 11.872C6.66133 11.872 5.93067 11.5467 5.44 10.896C4.94933 10.2347 4.704 9.36 4.704 8.272C4.704 6.94933 5.02933 5.89867 5.68 5.12C6.34133 4.34133 7.25867 3.952 8.432 3.952ZM7.968 10.288C8.224 10.288 8.44267 10.2133 8.624 10.064C8.80533 9.91467 8.94933 9.728 9.056 9.504V5.696C8.81067 5.6 8.576 5.552 8.352 5.552C7.91467 5.552 7.57867 5.76533 7.344 6.192C7.10933 6.608 6.992 7.30667 6.992 8.288C6.992 9.01333 7.06667 9.53067 7.216 9.84C7.376 10.1387 7.62667 10.288 7.968 10.288Z" fill="#00C156"/>
</svg>
