<svg width="20" height="20" viewBox="0 0 20 20" fill="none" xmlns="http://www.w3.org/2000/svg">
<path d="M4.24242 0H15.7576C18.1006 0 20 1.8994 20 4.24242V15.7576C20 18.1006 18.1006 20 15.7576 20H4.24242C1.8994 20 0 18.1006 0 15.7576V4.24242C0 1.8994 1.8994 0 4.24242 0Z" fill="#00C156"/>
<path d="M14 10C14 12.2091 12.2091 14 10 14C7.79086 14 6 12.2091 6 10C6 7.79086 7.79086 6 10 6C12.2091 6 14 7.79086 14 10Z" fill="#00C156" stroke="white" stroke-width="2"/>
<path d="M16.5 6C17.3284 6 18 5.32843 18 4.5C18 3.67157 17.3284 3 16.5 3C15.6716 3 15 3.67157 15 4.5C15 5.32843 15.6716 6 16.5 6Z" fill="white"/>
</svg>
