<svg width="40" height="24" viewBox="0 0 40 24" fill="none" xmlns="http://www.w3.org/2000/svg">
<rect x="1" y="1" width="38" height="22" rx="5" stroke="#00C156" stroke-width="2"/>
<path d="M20 21C24.9706 21 29 16.9706 29 12C29 7.02944 24.9706 3 20 3C15.0294 3 11 7.02944 11 12C11 16.9706 15.0294 21 20 21Z" fill="white"/>
<path d="M22.596 4.92L23.954 5.788L17.472 15.56L16.114 14.692L22.596 4.92ZM16.898 5.34C17.3647 5.34 17.7847 5.44267 18.158 5.648C18.5407 5.85333 18.8393 6.14733 19.054 6.53C19.278 6.91267 19.39 7.356 19.39 7.86C19.39 8.364 19.278 8.80733 19.054 9.19C18.8393 9.57267 18.5407 9.86667 18.158 10.072C17.7847 10.2773 17.3647 10.38 16.898 10.38C16.4313 10.38 16.0067 10.2773 15.624 10.072C15.2507 9.85733 14.952 9.56333 14.728 9.19C14.5133 8.80733 14.406 8.364 14.406 7.86C14.406 7.356 14.5133 6.91733 14.728 6.544C14.952 6.16133 15.2507 5.86733 15.624 5.662C16.0067 5.44733 16.4313 5.34 16.898 5.34ZM16.898 6.67C16.2913 6.67 15.988 7.06667 15.988 7.86C15.988 8.20533 16.0533 8.49 16.184 8.714C16.324 8.938 16.562 9.05 16.898 9.05C17.4953 9.05 17.794 8.65333 17.794 7.86C17.794 7.06667 17.4953 6.67 16.898 6.67ZM23.128 10.212C23.5947 10.212 24.0147 10.3147 24.388 10.52C24.7707 10.7253 25.0693 11.0193 25.284 11.402C25.508 11.7753 25.62 12.214 25.62 12.718C25.62 13.222 25.508 13.6653 25.284 14.048C25.0693 14.4307 24.7707 14.7247 24.388 14.93C24.0147 15.1353 23.5947 15.238 23.128 15.238C22.6613 15.238 22.2367 15.1353 21.854 14.93C21.4713 14.7247 21.168 14.4307 20.944 14.048C20.7293 13.6653 20.622 13.222 20.622 12.718C20.622 12.214 20.7293 11.7753 20.944 11.402C21.168 11.0193 21.4713 10.7253 21.854 10.52C22.2367 10.3147 22.6613 10.212 23.128 10.212ZM23.128 11.542C22.5213 11.542 22.218 11.934 22.218 12.718C22.218 13.0633 22.2833 13.3527 22.414 13.586C22.554 13.81 22.792 13.922 23.128 13.922C23.7253 13.922 24.024 13.5207 24.024 12.718C24.024 11.934 23.7253 11.542 23.128 11.542Z" fill="#FC9600"/>
</svg>
